<svg width="1024" height="1024" viewBox="0 0 1024 1024" fill="none" xmlns="http://www.w3.org/2000/svg">
<path d="M537 1024H487V843.232C495.116 844.674 503.47 845.427 512 845.427C520.53 845.427 528.884 844.674 537 843.232V1024Z" fill="#2C2C2E" style="fill:#2C2C2E;fill:color(display-p3 0.1725 0.1725 0.1804);fill-opacity:1;"/>
<path d="M537 563.62C528.884 562.179 520.53 561.427 512 561.427C503.47 561.427 495.116 562.179 487 563.62V460.806C495.116 462.247 503.47 463 512 463C520.53 463 528.884 462.247 537 460.806V563.62Z" fill="#2C2C2E" style="fill:#2C2C2E;fill:color(display-p3 0.1725 0.1725 0.1804);fill-opacity:1;"/>
<path d="M537 181.193C528.884 179.752 520.53 179 512 179C503.47 179 495.116 179.752 487 181.193V0H537V181.193Z" fill="#2C2C2E" style="fill:#2C2C2E;fill:color(display-p3 0.1725 0.1725 0.1804);fill-opacity:1;"/>
</svg>
