<svg width="1024" height="1024" viewBox="0 0 1024 1024" fill="none" xmlns="http://www.w3.org/2000/svg">
<path d="M376.595 363.891C381.725 380.103 389.687 395.055 399.899 408.17L0 639.053V581.318L376.595 363.891Z" fill="black" style="fill:black;fill-opacity:1;"/>
<path d="M614 321C614 377.333 568.333 423 512 423C455.667 423 410 377.333 410 321C410 264.667 455.667 219 512 219C568.333 219 614 264.667 614 321Z" fill="black" style="fill:black;fill-opacity:1;"/>
<path d="M749.635 277.042L654.891 302.43C653.689 285.5 649.454 269.106 642.592 253.96L736.472 228.806L749.635 277.042ZM916.109 232.437L820.98 257.926L807.817 209.688L902.946 184.199L916.109 232.437ZM1024 203.526L987.454 213.318L974.291 165.083L1024 151.763V203.526Z" fill="black" style="fill:black;fill-opacity:1;"/>
</svg>
